<svg xmlns="http://www.w3.org/2000/svg" width="1200" height="250" viewBox="0 0 1200 250" role="img" aria-labelledby="title desc">
  <title id="title">Live GitHub statistics</title>
  <desc id="desc">Pink professional GitHub profile card for Adelaide Mhuntana</desc>
  <defs>
    <linearGradient id="roseGradient" x1="0" y1="0" x2="1" y2="1">
      <stop offset="0" stop-color="#E83E76"/>
      <stop offset="1" stop-color="#9A1E45"/>
    </linearGradient>
    <linearGradient id="paperGradient" x1="0" y1="0" x2="1" y2="1">
      <stop offset="0" stop-color="#FFFDFB"/>
      <stop offset="1" stop-color="#FFF3F2"/>
    </linearGradient>
    <filter id="shadow" x="-20%" y="-20%" width="140%" height="140%">
      <feDropShadow dx="0" dy="4" stdDeviation="6" flood-color="#7F1837" flood-opacity="0.10"/>
    </filter>
  </defs>
  
  <rect x="1" y="1" width="1198" height="248" rx="20" fill="url(#paperGradient)" stroke="#EEC3CD"/>
  <circle cx="34" cy="38" r="18" fill="#D92E68"/>
  <path d="M25 47V37m7 10V29m7 18V34m7 13V25" stroke="#FFF9F7" stroke-width="2"/>
  <text x="64" y="44" font-family="Arial, sans-serif" font-size="17" font-weight="700" letter-spacing="1.8" fill="#D92E68">GITHUB STATS</text>
  <rect x="32" y="76" width="132" height="132" rx="15" fill="#FFF4F5" stroke="#EEC3CD"/><text x="98" y="133" text-anchor="middle" font-family="Georgia, serif" font-size="31" fill="#7F1837">74</text><text x="98" y="164" text-anchor="middle" font-family="Arial, sans-serif" font-size="11" fill="#72535E">Contributions</text><rect x="180" y="76" width="132" height="132" rx="15" fill="#FFF4F5" stroke="#EEC3CD"/><text x="246" y="133" text-anchor="middle" font-family="Georgia, serif" font-size="31" fill="#7F1837">11</text><text x="246" y="164" text-anchor="middle" font-family="Arial, sans-serif" font-size="11" fill="#72535E">Public repositories</text><rect x="328" y="76" width="132" height="132" rx="15" fill="#FFF4F5" stroke="#EEC3CD"/><text x="394" y="133" text-anchor="middle" font-family="Georgia, serif" font-size="31" fill="#7F1837">6</text><text x="394" y="164" text-anchor="middle" font-family="Arial, sans-serif" font-size="11" fill="#72535E">Total stars</text><rect x="476" y="76" width="132" height="132" rx="15" fill="#FFF4F5" stroke="#EEC3CD"/><text x="542" y="133" text-anchor="middle" font-family="Georgia, serif" font-size="31" fill="#7F1837">2</text><text x="542" y="164" text-anchor="middle" font-family="Arial, sans-serif" font-size="11" fill="#72535E">Followers</text>
  <text x="646" y="44" font-family="Arial, sans-serif" font-size="14" font-weight="700" fill="#7F1837">Contribution activity</text>
  <text x="646" y="77" font-family="Arial, sans-serif" font-size="9" fill="#72535E">Aug</text><text x="686" y="77" font-family="Arial, sans-serif" font-size="9" fill="#72535E">Sep</text><text x="726" y="77" font-family="Arial, sans-serif" font-size="9" fill="#72535E">Oct</text><text x="766" y="77" font-family="Arial, sans-serif" font-size="9" fill="#72535E">Nov</text><text x="816" y="77" font-family="Arial, sans-serif" font-size="9" fill="#72535E">Dec</text><text x="856" y="77" font-family="Arial, sans-serif" font-size="9" fill="#72535E">Jan</text><text x="896" y="77" font-family="Arial, sans-serif" font-size="9" fill="#72535E">Feb</text><text x="936" y="77" font-family="Arial, sans-serif" font-size="9" fill="#72535E">Mar</text><text x="986" y="77" font-family="Arial, sans-serif" font-size="9" fill="#72535E">Apr</text><text x="1026" y="77" font-family="Arial, sans-serif" font-size="9" fill="#72535E">May</text><text x="1076" y="77" font-family="Arial, sans-serif" font-size="9" fill="#72535E">Jun</text><text x="1116" y="77" font-family="Arial, sans-serif" font-size="9" fill="#72535E">Jul</text><text x="1156" y="77" font-family="Arial, sans-serif" font-size="9" fill="#72535E">Aug</text>
  <rect x="646" y="91" width="8" height="8" rx="2" fill="#F9E8EC"/><rect x="646" y="101" width="8" height="8" rx="2" fill="#F9E8EC"/><rect x="646" y="111" width="8" height="8" rx="2" fill="#F9E8EC"/><rect x="646" y="121" width="8" height="8" rx="2" fill="#F9E8EC"/><rect x="646" y="131" width="8" height="8" rx="2" fill="#F9E8EC"/><rect x="646" y="141" width="8" height="8" rx="2" fill="#F9E8EC"/><rect x="646" y="151" width="8" height="8" rx="2" fill="#F9E8EC"/><rect x="656" y="91" width="8" height="8" rx="2" fill="#F9E8EC"/><rect x="656" y="101" width="8" height="8" rx="2" fill="#F9E8EC"/><rect x="656" y="111" width="8" height="8" rx="2" fill="#F9E8EC"/><rect x="656" y="121" width="8" height="8" rx="2" fill="#F9E8EC"/><rect x="656" y="131" width="8" height="8" rx="2" fill="#F9E8EC"/><rect x="656" y="141" width="8" height="8" rx="2" fill="#F9E8EC"/><rect x="656" y="151" width="8" height="8" rx="2" fill="#F9E8EC"/><rect x="666" y="91" width="8" height="8" rx="2" fill="#F9E8EC"/><rect x="666" y="101" width="8" height="8" rx="2" fill="#F9E8EC"/><rect x="666" y="111" width="8" height="8" rx="2" fill="#F9E8EC"/><rect x="666" y="121" width="8" height="8" rx="2" fill="#F9E8EC"/><rect x="666" y="131" width="8" height="8" rx="2" fill="#F9E8EC"/><rect x="666" y="141" width="8" height="8" rx="2" fill="#F9E8EC"/><rect x="666" y="151" width="8" height="8" rx="2" fill="#F9E8EC"/><rect x="676" y="91" width="8" height="8" rx="2" fill="#F9E8EC"/><rect x="676" y="101" width="8" height="8" rx="2" fill="#F9E8EC"/><rect x="676" y="111" width="8" height="8" rx="2" fill="#F9E8EC"/><rect x="676" y="121" width="8" height="8" rx="2" fill="#F9E8EC"/><rect x="676" y="131" width="8" height="8" rx="2" fill="#F9E8EC"/><rect x="676" y="141" width="8" height="8" rx="2" fill="#F9E8EC"/><rect x="676" y="151" width="8" height="8" rx="2" fill="#F9E8EC"/><rect x="686" y="91" width="8" height="8" rx="2" fill="#F9E8EC"/><rect x="686" y="101" width="8" height="8" rx="2" fill="#F9E8EC"/><rect x="686" y="111" width="8" height="8" rx="2" fill="#F9E8EC"/><rect x="686" y="121" width="8" height="8" rx="2" fill="#F9E8EC"/><rect x="686" y="131" width="8" height="8" rx="2" fill="#F9E8EC"/><rect x="686" y="141" width="8" height="8" rx="2" fill="#F9E8EC"/><rect x="686" y="151" width="8" height="8" rx="2" fill="#F9E8EC"/><rect x="696" y="91" width="8" height="8" rx="2" fill="#F9E8EC"/><rect x="696" y="101" width="8" height="8" rx="2" fill="#F9E8EC"/><rect x="696" y="111" width="8" height="8" rx="2" fill="#F9E8EC"/><rect x="696" y="121" width="8" height="8" rx="2" fill="#F9E8EC"/><rect x="696" y="131" width="8" height="8" rx="2" fill="#F9E8EC"/><rect x="696" y="141" width="8" height="8" rx="2" fill="#F9E8EC"/><rect x="696" y="151" width="8" height="8" rx="2" fill="#F9E8EC"/><rect x="706" y="91" width="8" height="8" rx="2" fill="#F9E8EC"/><rect x="706" y="101" width="8" height="8" rx="2" fill="#F9E8EC"/><rect x="706" y="111" width="8" height="8" rx="2" fill="#F9E8EC"/><rect x="706" y="121" width="8" height="8" rx="2" fill="#F9E8EC"/><rect x="706" y="131" width="8" height="8" rx="2" fill="#F9E8EC"/><rect x="706" y="141" width="8" height="8" rx="2" fill="#F9E8EC"/><rect x="706" y="151" width="8" height="8" rx="2" fill="#F9E8EC"/><rect x="716" y="91" width="8" height="8" rx="2" fill="#F9E8EC"/><rect x="716" y="101" width="8" height="8" rx="2" fill="#F9E8EC"/><rect x="716" y="111" width="8" height="8" rx="2" fill="#F9E8EC"/><rect x="716" y="121" width="8" height="8" rx="2" fill="#F9E8EC"/><rect x="716" y="131" width="8" height="8" rx="2" fill="#F9E8EC"/><rect x="716" y="141" width="8" height="8" rx="2" fill="#F9E8EC"/><rect x="716" y="151" width="8" height="8" rx="2" fill="#F9E8EC"/><rect x="726" y="91" width="8" height="8" rx="2" fill="#F9E8EC"/><rect x="726" y="101" width="8" height="8" rx="2" fill="#F9E8EC"/><rect x="726" y="111" width="8" height="8" rx="2" fill="#F9E8EC"/><rect x="726" y="121" width="8" height="8" rx="2" fill="#F9E8EC"/><rect x="726" y="131" width="8" height="8" rx="2" fill="#F9E8EC"/><rect x="726" y="141" width="8" height="8" rx="2" fill="#F9E8EC"/><rect x="726" y="151" width="8" height="8" rx="2" fill="#F9E8EC"/><rect x="736" y="91" width="8" height="8" rx="2" fill="#F9E8EC"/><rect x="736" y="101" width="8" height="8" rx="2" fill="#F9E8EC"/><rect x="736" y="111" width="8" height="8" rx="2" fill="#F9E8EC"/><rect x="736" y="121" width="8" height="8" rx="2" fill="#F9E8EC"/><rect x="736" y="131" width="8" height="8" rx="2" fill="#F9E8EC"/><rect x="736" y="141" width="8" height="8" rx="2" fill="#F9E8EC"/><rect x="736" y="151" width="8" height="8" rx="2" fill="#F9E8EC"/><rect x="746" y="91" width="8" height="8" rx="2" fill="#F9E8EC"/><rect x="746" y="101" width="8" height="8" rx="2" fill="#F9E8EC"/><rect x="746" y="111" width="8" height="8" rx="2" fill="#F9E8EC"/><rect x="746" y="121" width="8" height="8" rx="2" fill="#F9E8EC"/><rect x="746" y="131" width="8" height="8" rx="2" fill="#F9E8EC"/><rect x="746" y="141" width="8" height="8" rx="2" fill="#F9E8EC"/><rect x="746" y="151" width="8" height="8" rx="2" fill="#F9E8EC"/><rect x="756" y="91" width="8" height="8" rx="2" fill="#F9E8EC"/><rect x="756" y="101" width="8" height="8" rx="2" fill="#F9E8EC"/><rect x="756" y="111" width="8" height="8" rx="2" fill="#F9E8EC"/><rect x="756" y="121" width="8" height="8" rx="2" fill="#F9E8EC"/><rect x="756" y="131" width="8" height="8" rx="2" fill="#F9E8EC"/><rect x="756" y="141" width="8" height="8" rx="2" fill="#F9E8EC"/><rect x="756" y="151" width="8" height="8" rx="2" fill="#F9E8EC"/><rect x="766" y="91" width="8" height="8" rx="2" fill="#F9E8EC"/><rect x="766" y="101" width="8" height="8" rx="2" fill="#F9E8EC"/><rect x="766" y="111" width="8" height="8" rx="2" fill="#F9E8EC"/><rect x="766" y="121" width="8" height="8" rx="2" fill="#F9E8EC"/><rect x="766" y="131" width="8" height="8" rx="2" fill="#F5B9C8"/><rect x="766" y="141" width="8" height="8" rx="2" fill="#F9E8EC"/><rect x="766" y="151" width="8" height="8" rx="2" fill="#F9E8EC"/><rect x="776" y="91" width="8" height="8" rx="2" fill="#F9E8EC"/><rect x="776" y="101" width="8" height="8" rx="2" fill="#F9E8EC"/><rect x="776" y="111" width="8" height="8" rx="2" fill="#F9E8EC"/><rect x="776" y="121" width="8" height="8" rx="2" fill="#F9E8EC"/><rect x="776" y="131" width="8" height="8" rx="2" fill="#F9E8EC"/><rect x="776" y="141" width="8" height="8" rx="2" fill="#F9E8EC"/><rect x="776" y="151" width="8" height="8" rx="2" fill="#F9E8EC"/><rect x="786" y="91" width="8" height="8" rx="2" fill="#F9E8EC"/><rect x="786" y="101" width="8" height="8" rx="2" fill="#F9E8EC"/><rect x="786" y="111" width="8" height="8" rx="2" fill="#F9E8EC"/><rect x="786" y="121" width="8" height="8" rx="2" fill="#F9E8EC"/><rect x="786" y="131" width="8" height="8" rx="2" fill="#F9E8EC"/><rect x="786" y="141" width="8" height="8" rx="2" fill="#F9E8EC"/><rect x="786" y="151" width="8" height="8" rx="2" fill="#F9E8EC"/><rect x="796" y="91" width="8" height="8" rx="2" fill="#F9E8EC"/><rect x="796" y="101" width="8" height="8" rx="2" fill="#F9E8EC"/><rect x="796" y="111" width="8" height="8" rx="2" fill="#F9E8EC"/><rect x="796" y="121" width="8" height="8" rx="2" fill="#F9E8EC"/><rect x="796" y="131" width="8" height="8" rx="2" fill="#F9E8EC"/><rect x="796" y="141" width="8" height="8" rx="2" fill="#F9E8EC"/><rect x="796" y="151" width="8" height="8" rx="2" fill="#F9E8EC"/><rect x="806" y="91" width="8" height="8" rx="2" fill="#F9E8EC"/><rect x="806" y="101" width="8" height="8" rx="2" fill="#F9E8EC"/><rect x="806" y="111" width="8" height="8" rx="2" fill="#F9E8EC"/><rect x="806" y="121" width="8" height="8" rx="2" fill="#F5B9C8"/><rect x="806" y="131" width="8" height="8" rx="2" fill="#F9E8EC"/><rect x="806" y="141" width="8" height="8" rx="2" fill="#F9E8EC"/><rect x="806" y="151" width="8" height="8" rx="2" fill="#F9E8EC"/><rect x="816" y="91" width="8" height="8" rx="2" fill="#F9E8EC"/><rect x="816" y="101" width="8" height="8" rx="2" fill="#F9E8EC"/><rect x="816" y="111" width="8" height="8" rx="2" fill="#F9E8EC"/><rect x="816" y="121" width="8" height="8" rx="2" fill="#F9E8EC"/><rect x="816" y="131" width="8" height="8" rx="2" fill="#F9E8EC"/><rect x="816" y="141" width="8" height="8" rx="2" fill="#F9E8EC"/><rect x="816" y="151" width="8" height="8" rx="2" fill="#F9E8EC"/><rect x="826" y="91" width="8" height="8" rx="2" fill="#F9E8EC"/><rect x="826" y="101" width="8" height="8" rx="2" fill="#F9E8EC"/><rect x="826" y="111" width="8" height="8" rx="2" fill="#F9E8EC"/><rect x="826" y="121" width="8" height="8" rx="2" fill="#F9E8EC"/><rect x="826" y="131" width="8" height="8" rx="2" fill="#F9E8EC"/><rect x="826" y="141" width="8" height="8" rx="2" fill="#F9E8EC"/><rect x="826" y="151" width="8" height="8" rx="2" fill="#F9E8EC"/><rect x="836" y="91" width="8" height="8" rx="2" fill="#F9E8EC"/><rect x="836" y="101" width="8" height="8" rx="2" fill="#F9E8EC"/><rect x="836" y="111" width="8" height="8" rx="2" fill="#F9E8EC"/><rect x="836" y="121" width="8" height="8" rx="2" fill="#F9E8EC"/><rect x="836" y="131" width="8" height="8" rx="2" fill="#F9E8EC"/><rect x="836" y="141" width="8" height="8" rx="2" fill="#F9E8EC"/><rect x="836" y="151" width="8" height="8" rx="2" fill="#F9E8EC"/><rect x="846" y="91" width="8" height="8" rx="2" fill="#F9E8EC"/><rect x="846" y="101" width="8" height="8" rx="2" fill="#F9E8EC"/><rect x="846" y="111" width="8" height="8" rx="2" fill="#F9E8EC"/><rect x="846" y="121" width="8" height="8" rx="2" fill="#F9E8EC"/><rect x="846" y="131" width="8" height="8" rx="2" fill="#F9E8EC"/><rect x="846" y="141" width="8" height="8" rx="2" fill="#F9E8EC"/><rect x="846" y="151" width="8" height="8" rx="2" fill="#F9E8EC"/><rect x="856" y="91" width="8" height="8" rx="2" fill="#F9E8EC"/><rect x="856" y="101" width="8" height="8" rx="2" fill="#F9E8EC"/><rect x="856" y="111" width="8" height="8" rx="2" fill="#F9E8EC"/><rect x="856" y="121" width="8" height="8" rx="2" fill="#F9E8EC"/><rect x="856" y="131" width="8" height="8" rx="2" fill="#F9E8EC"/><rect x="856" y="141" width="8" height="8" rx="2" fill="#F9E8EC"/><rect x="856" y="151" width="8" height="8" rx="2" fill="#F9E8EC"/><rect x="866" y="91" width="8" height="8" rx="2" fill="#F9E8EC"/><rect x="866" y="101" width="8" height="8" rx="2" fill="#F9E8EC"/><rect x="866" y="111" width="8" height="8" rx="2" fill="#F9E8EC"/><rect x="866" y="121" width="8" height="8" rx="2" fill="#F9E8EC"/><rect x="866" y="131" width="8" height="8" rx="2" fill="#F9E8EC"/><rect x="866" y="141" width="8" height="8" rx="2" fill="#F9E8EC"/><rect x="866" y="151" width="8" height="8" rx="2" fill="#F9E8EC"/><rect x="876" y="91" width="8" height="8" rx="2" fill="#F9E8EC"/><rect x="876" y="101" width="8" height="8" rx="2" fill="#F9E8EC"/><rect x="876" y="111" width="8" height="8" rx="2" fill="#F9E8EC"/><rect x="876" y="121" width="8" height="8" rx="2" fill="#F9E8EC"/><rect x="876" y="131" width="8" height="8" rx="2" fill="#F9E8EC"/><rect x="876" y="141" width="8" height="8" rx="2" fill="#F9E8EC"/><rect x="876" y="151" width="8" height="8" rx="2" fill="#F9E8EC"/><rect x="886" y="91" width="8" height="8" rx="2" fill="#F9E8EC"/><rect x="886" y="101" width="8" height="8" rx="2" fill="#F9E8EC"/><rect x="886" y="111" width="8" height="8" rx="2" fill="#F9E8EC"/><rect x="886" y="121" width="8" height="8" rx="2" fill="#F9E8EC"/><rect x="886" y="131" width="8" height="8" rx="2" fill="#F9E8EC"/><rect x="886" y="141" width="8" height="8" rx="2" fill="#F9E8EC"/><rect x="886" y="151" width="8" height="8" rx="2" fill="#F9E8EC"/><rect x="896" y="91" width="8" height="8" rx="2" fill="#F9E8EC"/><rect x="896" y="101" width="8" height="8" rx="2" fill="#F9E8EC"/><rect x="896" y="111" width="8" height="8" rx="2" fill="#F9E8EC"/><rect x="896" y="121" width="8" height="8" rx="2" fill="#F9E8EC"/><rect x="896" y="131" width="8" height="8" rx="2" fill="#F9E8EC"/><rect x="896" y="141" width="8" height="8" rx="2" fill="#F9E8EC"/><rect x="896" y="151" width="8" height="8" rx="2" fill="#F9E8EC"/><rect x="906" y="91" width="8" height="8" rx="2" fill="#F9E8EC"/><rect x="906" y="101" width="8" height="8" rx="2" fill="#F9E8EC"/><rect x="906" y="111" width="8" height="8" rx="2" fill="#F9E8EC"/><rect x="906" y="121" width="8" height="8" rx="2" fill="#F9E8EC"/><rect x="906" y="131" width="8" height="8" rx="2" fill="#F9E8EC"/><rect x="906" y="141" width="8" height="8" rx="2" fill="#F9E8EC"/><rect x="906" y="151" width="8" height="8" rx="2" fill="#F9E8EC"/><rect x="916" y="91" width="8" height="8" rx="2" fill="#F9E8EC"/><rect x="916" y="101" width="8" height="8" rx="2" fill="#F9E8EC"/><rect x="916" y="111" width="8" height="8" rx="2" fill="#F9E8EC"/><rect x="916" y="121" width="8" height="8" rx="2" fill="#F9E8EC"/><rect x="916" y="131" width="8" height="8" rx="2" fill="#F9E8EC"/><rect x="916" y="141" width="8" height="8" rx="2" fill="#F9E8EC"/><rect x="916" y="151" width="8" height="8" rx="2" fill="#F9E8EC"/><rect x="926" y="91" width="8" height="8" rx="2" fill="#F9E8EC"/><rect x="926" y="101" width="8" height="8" rx="2" fill="#F9E8EC"/><rect x="926" y="111" width="8" height="8" rx="2" fill="#F9E8EC"/><rect x="926" y="121" width="8" height="8" rx="2" fill="#F9E8EC"/><rect x="926" y="131" width="8" height="8" rx="2" fill="#F9E8EC"/><rect x="926" y="141" width="8" height="8" rx="2" fill="#F9E8EC"/><rect x="926" y="151" width="8" height="8" rx="2" fill="#F9E8EC"/><rect x="936" y="91" width="8" height="8" rx="2" fill="#F9E8EC"/><rect x="936" y="101" width="8" height="8" rx="2" fill="#F9E8EC"/><rect x="936" y="111" width="8" height="8" rx="2" fill="#F9E8EC"/><rect x="936" y="121" width="8" height="8" rx="2" fill="#F9E8EC"/><rect x="936" y="131" width="8" height="8" rx="2" fill="#F9E8EC"/><rect x="936" y="141" width="8" height="8" rx="2" fill="#F9E8EC"/><rect x="936" y="151" width="8" height="8" rx="2" fill="#F9E8EC"/><rect x="946" y="91" width="8" height="8" rx="2" fill="#F9E8EC"/><rect x="946" y="101" width="8" height="8" rx="2" fill="#F9E8EC"/><rect x="946" y="111" width="8" height="8" rx="2" fill="#F9E8EC"/><rect x="946" y="121" width="8" height="8" rx="2" fill="#F9E8EC"/><rect x="946" y="131" width="8" height="8" rx="2" fill="#F9E8EC"/><rect x="946" y="141" width="8" height="8" rx="2" fill="#F9E8EC"/><rect x="946" y="151" width="8" height="8" rx="2" fill="#F9E8EC"/><rect x="956" y="91" width="8" height="8" rx="2" fill="#F9E8EC"/><rect x="956" y="101" width="8" height="8" rx="2" fill="#F9E8EC"/><rect x="956" y="111" width="8" height="8" rx="2" fill="#F9E8EC"/><rect x="956" y="121" width="8" height="8" rx="2" fill="#F9E8EC"/><rect x="956" y="131" width="8" height="8" rx="2" fill="#F9E8EC"/><rect x="956" y="141" width="8" height="8" rx="2" fill="#F9E8EC"/><rect x="956" y="151" width="8" height="8" rx="2" fill="#F9E8EC"/><rect x="966" y="91" width="8" height="8" rx="2" fill="#F9E8EC"/><rect x="966" y="101" width="8" height="8" rx="2" fill="#F9E8EC"/><rect x="966" y="111" width="8" height="8" rx="2" fill="#F9E8EC"/><rect x="966" y="121" width="8" height="8" rx="2" fill="#F9E8EC"/><rect x="966" y="131" width="8" height="8" rx="2" fill="#F9E8EC"/><rect x="966" y="141" width="8" height="8" rx="2" fill="#F9E8EC"/><rect x="966" y="151" width="8" height="8" rx="2" fill="#F9E8EC"/><rect x="976" y="91" width="8" height="8" rx="2" fill="#F9E8EC"/><rect x="976" y="101" width="8" height="8" rx="2" fill="#F9E8EC"/><rect x="976" y="111" width="8" height="8" rx="2" fill="#F9E8EC"/><rect x="976" y="121" width="8" height="8" rx="2" fill="#F9E8EC"/><rect x="976" y="131" width="8" height="8" rx="2" fill="#F5B9C8"/><rect x="976" y="141" width="8" height="8" rx="2" fill="#F9E8EC"/><rect x="976" y="151" width="8" height="8" rx="2" fill="#F9E8EC"/><rect x="986" y="91" width="8" height="8" rx="2" fill="#F9E8EC"/><rect x="986" y="101" width="8" height="8" rx="2" fill="#F9E8EC"/><rect x="986" y="111" width="8" height="8" rx="2" fill="#F9E8EC"/><rect x="986" y="121" width="8" height="8" rx="2" fill="#F9E8EC"/><rect x="986" y="131" width="8" height="8" rx="2" fill="#F9E8EC"/><rect x="986" y="141" width="8" height="8" rx="2" fill="#F9E8EC"/><rect x="986" y="151" width="8" height="8" rx="2" fill="#F9E8EC"/><rect x="996" y="91" width="8" height="8" rx="2" fill="#F9E8EC"/><rect x="996" y="101" width="8" height="8" rx="2" fill="#F9E8EC"/><rect x="996" y="111" width="8" height="8" rx="2" fill="#F9E8EC"/><rect x="996" y="121" width="8" height="8" rx="2" fill="#F9E8EC"/><rect x="996" y="131" width="8" height="8" rx="2" fill="#F9E8EC"/><rect x="996" y="141" width="8" height="8" rx="2" fill="#F9E8EC"/><rect x="996" y="151" width="8" height="8" rx="2" fill="#F9E8EC"/><rect x="1006" y="91" width="8" height="8" rx="2" fill="#F9E8EC"/><rect x="1006" y="101" width="8" height="8" rx="2" fill="#F9E8EC"/><rect x="1006" y="111" width="8" height="8" rx="2" fill="#F9E8EC"/><rect x="1006" y="121" width="8" height="8" rx="2" fill="#F9E8EC"/><rect x="1006" y="131" width="8" height="8" rx="2" fill="#F9E8EC"/><rect x="1006" y="141" width="8" height="8" rx="2" fill="#F9E8EC"/><rect x="1006" y="151" width="8" height="8" rx="2" fill="#F9E8EC"/><rect x="1016" y="91" width="8" height="8" rx="2" fill="#F9E8EC"/><rect x="1016" y="101" width="8" height="8" rx="2" fill="#F9E8EC"/><rect x="1016" y="111" width="8" height="8" rx="2" fill="#F9E8EC"/><rect x="1016" y="121" width="8" height="8" rx="2" fill="#F9E8EC"/><rect x="1016" y="131" width="8" height="8" rx="2" fill="#F9E8EC"/><rect x="1016" y="141" width="8" height="8" rx="2" fill="#F9E8EC"/><rect x="1016" y="151" width="8" height="8" rx="2" fill="#F9E8EC"/><rect x="1026" y="91" width="8" height="8" rx="2" fill="#F5B9C8"/><rect x="1026" y="101" width="8" height="8" rx="2" fill="#F5B9C8"/><rect x="1026" y="111" width="8" height="8" rx="2" fill="#F9E8EC"/><rect x="1026" y="121" width="8" height="8" rx="2" fill="#F9E8EC"/><rect x="1026" y="131" width="8" height="8" rx="2" fill="#F9E8EC"/><rect x="1026" y="141" width="8" height="8" rx="2" fill="#F9E8EC"/><rect x="1026" y="151" width="8" height="8" rx="2" fill="#F9E8EC"/><rect x="1036" y="91" width="8" height="8" rx="2" fill="#F9E8EC"/><rect x="1036" y="101" width="8" height="8" rx="2" fill="#F9E8EC"/><rect x="1036" y="111" width="8" height="8" rx="2" fill="#F9E8EC"/><rect x="1036" y="121" width="8" height="8" rx="2" fill="#F9E8EC"/><rect x="1036" y="131" width="8" height="8" rx="2" fill="#F9E8EC"/><rect x="1036" y="141" width="8" height="8" rx="2" fill="#F9E8EC"/><rect x="1036" y="151" width="8" height="8" rx="2" fill="#F9E8EC"/><rect x="1046" y="91" width="8" height="8" rx="2" fill="#F9E8EC"/><rect x="1046" y="101" width="8" height="8" rx="2" fill="#F9E8EC"/><rect x="1046" y="111" width="8" height="8" rx="2" fill="#F9E8EC"/><rect x="1046" y="121" width="8" height="8" rx="2" fill="#F9E8EC"/><rect x="1046" y="131" width="8" height="8" rx="2" fill="#F9E8EC"/><rect x="1046" y="141" width="8" height="8" rx="2" fill="#F9E8EC"/><rect x="1046" y="151" width="8" height="8" rx="2" fill="#F9E8EC"/><rect x="1056" y="91" width="8" height="8" rx="2" fill="#F9E8EC"/><rect x="1056" y="101" width="8" height="8" rx="2" fill="#F9E8EC"/><rect x="1056" y="111" width="8" height="8" rx="2" fill="#F9E8EC"/><rect x="1056" y="121" width="8" height="8" rx="2" fill="#F9E8EC"/><rect x="1056" y="131" width="8" height="8" rx="2" fill="#F9E8EC"/><rect x="1056" y="141" width="8" height="8" rx="2" fill="#F9E8EC"/><rect x="1056" y="151" width="8" height="8" rx="2" fill="#F9E8EC"/><rect x="1066" y="91" width="8" height="8" rx="2" fill="#F5B9C8"/><rect x="1066" y="101" width="8" height="8" rx="2" fill="#F9E8EC"/><rect x="1066" y="111" width="8" height="8" rx="2" fill="#F9E8EC"/><rect x="1066" y="121" width="8" height="8" rx="2" fill="#F9E8EC"/><rect x="1066" y="131" width="8" height="8" rx="2" fill="#F9E8EC"/><rect x="1066" y="141" width="8" height="8" rx="2" fill="#F9E8EC"/><rect x="1066" y="151" width="8" height="8" rx="2" fill="#F9E8EC"/><rect x="1076" y="91" width="8" height="8" rx="2" fill="#F9E8EC"/><rect x="1076" y="101" width="8" height="8" rx="2" fill="#F9E8EC"/><rect x="1076" y="111" width="8" height="8" rx="2" fill="#F9E8EC"/><rect x="1076" y="121" width="8" height="8" rx="2" fill="#F9E8EC"/><rect x="1076" y="131" width="8" height="8" rx="2" fill="#F9E8EC"/><rect x="1076" y="141" width="8" height="8" rx="2" fill="#F9E8EC"/><rect x="1076" y="151" width="8" height="8" rx="2" fill="#F9E8EC"/><rect x="1086" y="91" width="8" height="8" rx="2" fill="#F9E8EC"/><rect x="1086" y="101" width="8" height="8" rx="2" fill="#F9E8EC"/><rect x="1086" y="111" width="8" height="8" rx="2" fill="#F9E8EC"/><rect x="1086" y="121" width="8" height="8" rx="2" fill="#F9E8EC"/><rect x="1086" y="131" width="8" height="8" rx="2" fill="#F9E8EC"/><rect x="1086" y="141" width="8" height="8" rx="2" fill="#F9E8EC"/><rect x="1086" y="151" width="8" height="8" rx="2" fill="#F9E8EC"/><rect x="1096" y="91" width="8" height="8" rx="2" fill="#F9E8EC"/><rect x="1096" y="101" width="8" height="8" rx="2" fill="#F9E8EC"/><rect x="1096" y="111" width="8" height="8" rx="2" fill="#F9E8EC"/><rect x="1096" y="121" width="8" height="8" rx="2" fill="#F9E8EC"/><rect x="1096" y="131" width="8" height="8" rx="2" fill="#F9E8EC"/><rect x="1096" y="141" width="8" height="8" rx="2" fill="#F9E8EC"/><rect x="1096" y="151" width="8" height="8" rx="2" fill="#F9E8EC"/><rect x="1106" y="91" width="8" height="8" rx="2" fill="#F5B9C8"/><rect x="1106" y="101" width="8" height="8" rx="2" fill="#F5B9C8"/><rect x="1106" y="111" width="8" height="8" rx="2" fill="#F5B9C8"/><rect x="1106" y="121" width="8" height="8" rx="2" fill="#F9E8EC"/><rect x="1106" y="131" width="8" height="8" rx="2" fill="#F5B9C8"/><rect x="1106" y="141" width="8" height="8" rx="2" fill="#F9E8EC"/><rect x="1106" y="151" width="8" height="8" rx="2" fill="#F9E8EC"/><rect x="1116" y="91" width="8" height="8" rx="2" fill="#F9E8EC"/><rect x="1116" y="101" width="8" height="8" rx="2" fill="#F9E8EC"/><rect x="1116" y="111" width="8" height="8" rx="2" fill="#F9E8EC"/><rect x="1116" y="121" width="8" height="8" rx="2" fill="#F9E8EC"/><rect x="1116" y="131" width="8" height="8" rx="2" fill="#F9E8EC"/><rect x="1116" y="141" width="8" height="8" rx="2" fill="#F9E8EC"/><rect x="1116" y="151" width="8" height="8" rx="2" fill="#F9E8EC"/><rect x="1126" y="91" width="8" height="8" rx="2" fill="#F9E8EC"/><rect x="1126" y="101" width="8" height="8" rx="2" fill="#F9E8EC"/><rect x="1126" y="111" width="8" height="8" rx="2" fill="#F9E8EC"/><rect x="1126" y="121" width="8" height="8" rx="2" fill="#F9E8EC"/><rect x="1126" y="131" width="8" height="8" rx="2" fill="#F9E8EC"/><rect x="1126" y="141" width="8" height="8" rx="2" fill="#F9E8EC"/><rect x="1126" y="151" width="8" height="8" rx="2" fill="#F9E8EC"/><rect x="1136" y="91" width="8" height="8" rx="2" fill="#F9E8EC"/><rect x="1136" y="101" width="8" height="8" rx="2" fill="#F9E8EC"/><rect x="1136" y="111" width="8" height="8" rx="2" fill="#F9E8EC"/><rect x="1136" y="121" width="8" height="8" rx="2" fill="#F9E8EC"/><rect x="1136" y="131" width="8" height="8" rx="2" fill="#F9E8EC"/><rect x="1136" y="141" width="8" height="8" rx="2" fill="#F9E8EC"/><rect x="1136" y="151" width="8" height="8" rx="2" fill="#F9E8EC"/><rect x="1146" y="91" width="8" height="8" rx="2" fill="#F9E8EC"/><rect x="1146" y="101" width="8" height="8" rx="2" fill="#F9E8EC"/><rect x="1146" y="111" width="8" height="8" rx="2" fill="#F9E8EC"/><rect x="1146" y="121" width="8" height="8" rx="2" fill="#F9E8EC"/><rect x="1146" y="131" width="8" height="8" rx="2" fill="#F9E8EC"/><rect x="1146" y="141" width="8" height="8" rx="2" fill="#F9E8EC"/><rect x="1146" y="151" width="8" height="8" rx="2" fill="#F9E8EC"/><rect x="1156" y="91" width="8" height="8" rx="2" fill="#F9E8EC"/><rect x="1156" y="101" width="8" height="8" rx="2" fill="#F9E8EC"/><rect x="1156" y="111" width="8" height="8" rx="2" fill="#F9E8EC"/><rect x="1156" y="121" width="8" height="8" rx="2" fill="#F9E8EC"/><rect x="1156" y="131" width="8" height="8" rx="2" fill="#F9E8EC"/><rect x="1156" y="141" width="8" height="8" rx="2" fill="#F9E8EC"/><rect x="1156" y="151" width="8" height="8" rx="2" fill="#F9E8EC"/><rect x="1166" y="91" width="8" height="8" rx="2" fill="#F9E8EC"/><rect x="1166" y="101" width="8" height="8" rx="2" fill="#F9E8EC"/><rect x="1166" y="111" width="8" height="8" rx="2" fill="#F9E8EC"/><rect x="1166" y="121" width="8" height="8" rx="2" fill="#F9E8EC"/><rect x="1166" y="131" width="8" height="8" rx="2" fill="#F9E8EC"/><rect x="1166" y="141" width="8" height="8" rx="2" fill="#8B1B3D"/><rect x="1166" y="151" width="8" height="8" rx="2" fill="#F9E8EC"/>
  <text x="646" y="188" font-family="Arial, sans-serif" font-size="10" fill="#72535E">Less</text>
  <rect x="676" y="179" width="9" height="9" rx="2" fill="#F9E8EC"/>
  <rect x="689" y="179" width="9" height="9" rx="2" fill="#F5B9C8"/>
  <rect x="702" y="179" width="9" height="9" rx="2" fill="#EC7898"/>
  <rect x="715" y="179" width="9" height="9" rx="2" fill="#D9366B"/>
  <rect x="728" y="179" width="9" height="9" rx="2" fill="#8B1B3D"/>
  <text x="744" y="188" font-family="Arial, sans-serif" font-size="10" fill="#72535E">More</text>
  <text x="1168" y="226" text-anchor="end" font-family="Georgia, serif" font-size="13" font-style="italic" fill="#72535E">Updated automatically every day</text>

</svg>
