<svg xmlns="http://www.w3.org/2000/svg" width="570" height="230" viewBox="0 0 570 230" role="img" aria-labelledby="title desc">
  <title id="title">multi-agent-ai-course-generator project card</title>
  <desc id="desc">Pink professional GitHub profile card for Adelaide Mhuntana</desc>
  <defs>
    <linearGradient id="roseGradient" x1="0" y1="0" x2="1" y2="1">
      <stop offset="0" stop-color="#E83E76"/>
      <stop offset="1" stop-color="#9A1E45"/>
    </linearGradient>
    <linearGradient id="paperGradient" x1="0" y1="0" x2="1" y2="1">
      <stop offset="0" stop-color="#FFFDFB"/>
      <stop offset="1" stop-color="#FFF3F2"/>
    </linearGradient>
    <filter id="shadow" x="-20%" y="-20%" width="140%" height="140%">
      <feDropShadow dx="0" dy="4" stdDeviation="6" flood-color="#7F1837" flood-opacity="0.10"/>
    </filter>
  </defs>
  
  <rect x="1" y="1" width="568" height="228" rx="18" fill="url(#paperGradient)" stroke="#EEC3CD"/>
  <rect x="24" y="28" width="86" height="86" rx="14" fill="url(#roseGradient)" filter="url(#shadow)"/>
  <text x="67" y="80" text-anchor="middle" font-family="Arial, sans-serif" font-size="28" font-weight="700" fill="#FFF9F7">AI</text>
  <text x="132" y="50" font-family="Arial, sans-serif" font-size="17" font-weight="700" fill="#7F1837">multi-agent-ai-course-generator</text>
  <text x="132" y="91" font-family="Arial, sans-serif" font-size="14" fill="#3E222C">A cloud-ready multi-agent AI system that generates</text><text x="132" y="113" font-family="Arial, sans-serif" font-size="14" fill="#3E222C">structured courses from user prompts.</text>
  <rect x="132" y="174" width="64" height="28" rx="7" fill="#FFF1F3" stroke="#EEC3CD"/><text x="164.0" y="192" text-anchor="middle" font-family="Arial, sans-serif" font-size="11" fill="#7F1837">Python</text><rect x="204" y="174" width="71" height="28" rx="7" fill="#FFF1F3" stroke="#EEC3CD"/><text x="239.5" y="192" text-anchor="middle" font-family="Arial, sans-serif" font-size="11" fill="#7F1837">FastAPI</text><rect x="283" y="174" width="113" height="28" rx="7" fill="#FFF1F3" stroke="#EEC3CD"/><text x="339.5" y="192" text-anchor="middle" font-family="Arial, sans-serif" font-size="11" fill="#7F1837">Microservices</text><rect x="404" y="174" width="58" height="28" rx="7" fill="#FFF1F3" stroke="#EEC3CD"/><text x="433.0" y="192" text-anchor="middle" font-family="Arial, sans-serif" font-size="11" fill="#7F1837">AI</text>
  <text x="520" y="193" text-anchor="end" font-family="Arial, sans-serif" font-size="13" fill="#72535E">★ 0</text>
  <path d="M531 32h14v14M544 33l-16 16" fill="none" stroke="#E83E76" stroke-width="2" stroke-linecap="round"/>

</svg>
